<?xml version="1.0" encoding="utf-8"?>
<!-- Generator: Adobe Illustrator 19.0.0, SVG Export Plug-In . SVG Version: 6.00 Build 0)  -->
<svg version="1.1" xmlns="http://www.w3.org/2000/svg" xmlns:xlink="http://www.w3.org/1999/xlink" x="0px" y="0px"
	 viewBox="0 0 500 500" style="enable-background:new 0 0 500 500;" xml:space="preserve">
<style type="text/css">
	.st0{fill:url(#XMLID_2_);}
</style>
<g id="Layer_1">
</g>
<g id="Layer_2">
	<linearGradient id="XMLID_2_" gradientUnits="userSpaceOnUse" x1="74.2529" y1="383.0111" x2="453.0439" y2="96.3298">
		<stop  offset="0" style="stop-color:#FF7E19"/>
		<stop  offset="1" style="stop-color:#FABE4E"/>
	</linearGradient>
	<path id="XMLID_12_" class="st0" d="M401.7,93.7V158h-27.6V93.7h-27.6v128.7h-36.8V93.7h-27.6V158h-27.6V93.7h-36.8v128.7h-27.6
		V93.7h-27.6V158H135V93.7H98.3v128.7H70.7V93.7H56.1c-27.5,0-49.8,22.3-49.8,49.8v213c0,27.5,22.3,49.8,49.8,49.8h387.8
		c27.5,0,49.8-22.3,49.8-49.8v-213c0-27.5-22.3-49.8-49.8-49.8H401.7z"/>
</g>
</svg>
