<?xml version="1.0" encoding="utf-8"?>
<!-- Generator: Adobe Illustrator 19.0.0, SVG Export Plug-In . SVG Version: 6.00 Build 0)  -->
<svg version="1.1" xmlns="http://www.w3.org/2000/svg" xmlns:xlink="http://www.w3.org/1999/xlink" x="0px" y="0px"
	 viewBox="0 0 500 500" style="enable-background:new 0 0 500 500;" xml:space="preserve">
<style type="text/css">
	.st0{fill:url(#XMLID_2_);}
	.st1{fill:url(#XMLID_3_);}
</style>
<g id="Layer_1">
</g>
<g id="Layer_2">
	<g id="XMLID_4_">
		<linearGradient id="XMLID_2_" gradientUnits="userSpaceOnUse" x1="30.7763" y1="364.3333" x2="414.4805" y2="73.9336">
			<stop  offset="0" style="stop-color:#FF7E19"/>
			<stop  offset="1" style="stop-color:#FABE4E"/>
		</linearGradient>
		<path id="XMLID_5_" class="st0" d="M90.1,124.3h363.3v-15.1c0-12.2-9.9-22.1-22.1-22.1H87.8H76.7c-13.2,0-23.9,10.7-23.9,23.9
			v11.1v225.9H6.3V413H295v-65.2H90.1V124.3z"/>
		<linearGradient id="XMLID_3_" gradientUnits="userSpaceOnUse" x1="326.9562" y1="353.2423" x2="511.3304" y2="213.702">
			<stop  offset="0" style="stop-color:#FF7E19"/>
			<stop  offset="1" style="stop-color:#FABE4E"/>
		</linearGradient>
		<path id="XMLID_15_" class="st1" d="M494,187.3c0-12.9-10.4-23.3-23.3-23.3H354.3c-12.9,0-23.3,10.4-23.3,23.3v202.4
			c0,12.9,10.4,23.3,23.3,23.3h116.4c12.9,0,23.3-10.4,23.3-23.3V187.3z M478,359.1c0,9.9-8,17.9-17.9,17.9h-91.2
			c-9.9,0-17.9-8-17.9-17.9V196.9c0-9.9,8-17.9,17.9-17.9h91.2c9.9,0,17.9,8,17.9,17.9V359.1z"/>
	</g>
</g>
</svg>
